<?xml version="1.0" encoding="UTF-8"?>
<svg id="Layer_1" data-name="Layer 1" xmlns="http://www.w3.org/2000/svg" viewBox="0 0 229.51 22.39">
  <defs>
    <style>
      .cls-1 {
        fill: #1b1464;
      }
    </style>
  </defs>
  <path class="cls-1" d="M16.41,.66V17.68h-2.19V7.01l-6.07,8.6h-.05L2.14,7.3v10.38H0V.66H.02L8.15,12.16,16.38,.66h.02Z"/>
  <path class="cls-1" d="M30.33,8.24v9.45h-2.12v-1.55c-.33,.44-.82,.85-1.46,1.22s-1.36,.56-2.17,.56c-.9,0-1.71-.19-2.43-.58-.72-.39-1.29-.95-1.71-1.7-.42-.75-.63-1.64-.63-2.67s.22-1.94,.65-2.7c.43-.77,1.02-1.36,1.76-1.78,.74-.42,1.56-.63,2.45-.63,.81,0,1.51,.18,2.1,.52,.59,.35,1.07,.81,1.44,1.37l.16-1.51h1.96Zm-3.18,7.27c.56-.43,.91-1.02,1.06-1.77v-1.87c-.18-.67-.56-1.21-1.14-1.63-.58-.42-1.24-.63-1.99-.63-.56,0-1.08,.14-1.56,.41s-.86,.66-1.14,1.15c-.28,.49-.42,1.05-.42,1.68s.14,1.16,.43,1.67c.29,.5,.68,.9,1.16,1.2,.49,.3,1.02,.44,1.6,.44,.78,0,1.44-.22,2-.65Z"/>
  <path class="cls-1" d="M42.08,8.66c.58,.52,.87,1.21,.89,2.04v6.98h-2.14v-6.25c-.03-.53-.19-.95-.48-1.26-.29-.3-.72-.46-1.3-.48-.84,0-1.53,.33-2.08,1-.55,.67-.82,1.52-.82,2.56v4.43h-2.12V8.24h1.92l.14,1.83c.33-.68,.84-1.22,1.51-1.61,.67-.39,1.44-.58,2.3-.58s1.61,.26,2.19,.79Z"/>
  <path class="cls-1" d="M56.34,8.24v9.45h-2.12v-1.55c-.33,.44-.82,.85-1.46,1.22s-1.36,.56-2.17,.56c-.9,0-1.71-.19-2.43-.58-.72-.39-1.29-.95-1.71-1.7-.42-.75-.63-1.64-.63-2.67s.22-1.94,.65-2.7c.43-.77,1.02-1.36,1.76-1.78,.74-.42,1.56-.63,2.45-.63,.81,0,1.51,.18,2.1,.52,.59,.35,1.07,.81,1.44,1.37l.16-1.51h1.96Zm-3.18,7.27c.56-.43,.91-1.02,1.06-1.77v-1.87c-.18-.67-.56-1.21-1.14-1.63-.58-.42-1.24-.63-1.99-.63-.56,0-1.08,.14-1.56,.41s-.86,.66-1.14,1.15c-.28,.49-.42,1.05-.42,1.68s.14,1.16,.43,1.67c.29,.5,.68,.9,1.16,1.2,.49,.3,1.02,.44,1.6,.44,.78,0,1.44-.22,2-.65Z"/>
  <path class="cls-1" d="M70.01,8.24v9.52c0,.87-.22,1.65-.66,2.35-.44,.7-1.07,1.26-1.88,1.67-.81,.41-1.77,.62-2.86,.62-.96,0-1.78-.16-2.48-.48-.69-.32-1.39-.79-2.09-1.41l1.26-1.46c.52,.49,1.03,.86,1.55,1.11,.52,.25,1.09,.38,1.71,.38,1.05,0,1.86-.25,2.43-.75s.86-1.18,.88-2.03l.02-1.78c-.35,.59-.86,1.07-1.54,1.43-.68,.36-1.46,.54-2.34,.54s-1.67-.22-2.4-.66-1.31-1.04-1.75-1.8c-.43-.76-.65-1.6-.65-2.53s.22-1.82,.67-2.59c.45-.77,1.05-1.37,1.81-1.81,.76-.44,1.57-.66,2.44-.66,.81,0,1.55,.16,2.24,.48s1.19,.73,1.53,1.23l.16-1.32h1.94Zm-3.29,7.26c.59-.44,.98-1.02,1.16-1.73v-1.87c-.21-.68-.62-1.24-1.21-1.65-.59-.42-1.28-.63-2.05-.63-.93,0-1.7,.3-2.33,.91-.62,.61-.94,1.38-.94,2.33,0,.61,.14,1.16,.43,1.67,.29,.5,.68,.9,1.19,1.2s1.05,.44,1.64,.44c.81,0,1.51-.22,2.1-.66Z"/>
  <path class="cls-1" d="M80.43,15.27l.98,1.57c-.5,.33-1.05,.6-1.63,.79-.59,.19-1.15,.29-1.7,.29-1.05,0-1.97-.22-2.75-.65-.78-.43-1.39-1.03-1.81-1.79-.43-.76-.64-1.62-.64-2.58s.23-1.78,.7-2.54c.46-.77,1.1-1.38,1.91-1.83,.81-.45,1.69-.67,2.65-.67,1.23,0,2.26,.36,3.09,1.08,.83,.72,1.4,1.73,1.7,3.02l-7.48,2.62c.27,.47,.64,.84,1.11,1.11,.46,.27,.99,.4,1.59,.4,.79,0,1.56-.27,2.3-.82Zm-4.61-4.81c-.56,.61-.84,1.38-.84,2.33,0,.23,0,.4,.02,.52l5.5-2.03c-.23-.52-.55-.94-.97-1.26-.42-.32-.94-.48-1.56-.48-.87,0-1.58,.3-2.14,.91Z"/>
  <path class="cls-1" d="M106.08,1.19l-6.18,11v5.5h-2.21v-5.5l-6.12-11h2.74l4.54,8.49,4.52-8.49h2.72Z"/>
  <path class="cls-1" d="M105.98,10.33c.45-.77,1.07-1.37,1.87-1.81,.8-.44,1.7-.66,2.7-.66s1.9,.22,2.68,.66c.78,.44,1.39,1.04,1.83,1.8,.43,.76,.65,1.61,.65,2.56s-.22,1.8-.65,2.57c-.43,.77-1.05,1.37-1.84,1.81-.79,.44-1.7,.66-2.72,.66s-1.88-.21-2.67-.63c-.79-.42-1.41-1.01-1.86-1.77-.45-.76-.67-1.64-.67-2.65,0-.93,.22-1.78,.67-2.54Zm1.87,4.21c.27,.5,.63,.9,1.1,1.19,.46,.29,.98,.43,1.54,.43,.88,0,1.61-.31,2.19-.94,.58-.62,.87-1.4,.87-2.33s-.29-1.71-.87-2.34c-.58-.63-1.31-.95-2.19-.95-.58,0-1.1,.15-1.55,.44s-.82,.7-1.08,1.2c-.27,.5-.4,1.05-.4,1.64s.13,1.14,.4,1.64Z"/>
  <path class="cls-1" d="M127.35,8.24v9.45h-1.92l-.14-1.8c-.32,.64-.81,1.16-1.48,1.56-.67,.4-1.41,.6-2.24,.6-.87,0-1.58-.26-2.13-.79-.56-.52-.85-1.21-.88-2.04v-6.98h2.12v6.23c.03,.53,.19,.95,.47,1.27,.28,.31,.7,.48,1.27,.49,.52,0,.99-.16,1.41-.47,.43-.31,.76-.74,1.02-1.29s.38-1.16,.38-1.83v-4.4h2.12Z"/>
  <path class="cls-1" d="M134.14,9.1c.45-.4,.92-.7,1.43-.91,.5-.21,.94-.33,1.32-.34l-.09,2.12c-.68-.03-1.3,.11-1.86,.41-.56,.3-.99,.73-1.3,1.27-.31,.54-.47,1.11-.47,1.72v4.31h-2.12V8.24h1.89l.16,2.24c.24-.52,.59-.97,1.04-1.37Z"/>
  <path class="cls-1" d="M154,3.35c-.67-.2-1.3-.3-1.89-.3-.9,0-1.61,.2-2.13,.6-.52,.4-.79,.95-.79,1.65s.31,1.24,.92,1.68,1.49,.86,2.64,1.29c.85,.3,1.57,.64,2.16,.99,.59,.36,1.07,.85,1.46,1.48,.39,.63,.58,1.43,.58,2.41,0,.88-.22,1.68-.66,2.4-.44,.72-1.07,1.28-1.88,1.69-.81,.41-1.77,.62-2.86,.62-1.02,0-2-.16-2.94-.49-.94-.33-1.77-.74-2.49-1.24l.98-1.76c.56,.43,1.24,.79,2.03,1.08,.79,.3,1.53,.44,2.21,.44,.88,0,1.65-.23,2.32-.68s.99-1.13,.99-2.03c0-.76-.28-1.37-.83-1.81-.56-.45-1.33-.87-2.34-1.27-.93-.35-1.7-.69-2.32-1.03-.62-.33-1.14-.79-1.59-1.38-.44-.59-.66-1.32-.66-2.2,0-1.29,.45-2.34,1.36-3.14,.9-.8,2.08-1.22,3.53-1.27,1.78,0,3.43,.44,4.95,1.32l-.84,1.71c-.59-.32-1.22-.58-1.89-.78Z"/>
  <path class="cls-1" d="M168.9,8.24v9.45h-1.92l-.14-1.8c-.32,.64-.81,1.16-1.48,1.56-.67,.4-1.41,.6-2.24,.6-.87,0-1.58-.26-2.13-.79-.56-.52-.85-1.21-.88-2.04v-6.98h2.12v6.23c.03,.53,.19,.95,.47,1.27,.28,.31,.7,.48,1.27,.49,.52,0,.99-.16,1.41-.47,.43-.31,.76-.74,1.02-1.29s.38-1.16,.38-1.83v-4.4h2.12Z"/>
  <path class="cls-1" d="M180.97,8.49c.71,.43,1.28,1.02,1.69,1.79,.41,.77,.62,1.65,.62,2.66s-.22,1.86-.66,2.61c-.44,.75-1.05,1.33-1.83,1.75s-1.64,.62-2.6,.62c-.68,0-1.34-.15-1.96-.44-.62-.3-1.13-.7-1.51-1.2v5.96h-2.12V8.08h1.85l.18,1.6c.49-.55,1.07-.99,1.75-1.32,.68-.33,1.41-.5,2.2-.5,.88,0,1.68,.21,2.4,.64Zm-1.54,7.29c.51-.28,.92-.67,1.22-1.16,.3-.49,.46-1.05,.46-1.65s-.14-1.19-.42-1.69c-.28-.5-.67-.9-1.15-1.19-.49-.29-1.03-.43-1.62-.43-.81,0-1.49,.22-2.07,.67-.57,.45-.95,1.05-1.13,1.81v1.57c.12,.73,.47,1.33,1.04,1.79,.57,.46,1.24,.7,2.02,.7,.59,0,1.14-.14,1.65-.42Z"/>
  <path class="cls-1" d="M194.5,8.49c.71,.43,1.28,1.02,1.69,1.79,.41,.77,.62,1.65,.62,2.66s-.22,1.86-.66,2.61c-.44,.75-1.05,1.33-1.83,1.75s-1.64,.62-2.6,.62c-.68,0-1.34-.15-1.96-.44-.62-.3-1.13-.7-1.51-1.2v5.96h-2.12V8.08h1.85l.18,1.6c.49-.55,1.07-.99,1.75-1.32,.68-.33,1.41-.5,2.2-.5,.88,0,1.68,.21,2.4,.64Zm-1.54,7.29c.51-.28,.92-.67,1.22-1.16,.3-.49,.46-1.05,.46-1.65s-.14-1.19-.42-1.69c-.28-.5-.67-.9-1.15-1.19-.49-.29-1.03-.43-1.62-.43-.81,0-1.49,.22-2.07,.67-.57,.45-.95,1.05-1.13,1.81v1.57c.12,.73,.47,1.33,1.04,1.79,.57,.46,1.24,.7,2.02,.7,.59,0,1.14-.14,1.65-.42Z"/>
  <path class="cls-1" d="M201.78,0V17.68h-2.12V0h2.12Z"/>
  <path class="cls-1" d="M205.71,3.99c.26-.23,.56-.34,.89-.34s.63,.11,.88,.34,.38,.51,.38,.84-.13,.62-.38,.84-.54,.34-.88,.34-.63-.11-.89-.34c-.26-.23-.39-.51-.39-.84s.13-.62,.39-.84Zm1.89,4.24v9.45h-2.12V8.24h2.12Z"/>
  <path class="cls-1" d="M218.03,15.27l.98,1.57c-.5,.33-1.05,.6-1.63,.79-.59,.19-1.15,.29-1.7,.29-1.05,0-1.97-.22-2.75-.65-.78-.43-1.39-1.03-1.81-1.79-.43-.76-.64-1.62-.64-2.58s.23-1.78,.7-2.54c.46-.77,1.1-1.38,1.91-1.83,.81-.45,1.69-.67,2.65-.67,1.23,0,2.26,.36,3.09,1.08,.83,.72,1.4,1.73,1.7,3.02l-7.48,2.62c.27,.47,.64,.84,1.11,1.11,.46,.27,.99,.4,1.59,.4,.79,0,1.56-.27,2.3-.82Zm-4.61-4.81c-.56,.61-.84,1.38-.84,2.33,0,.23,0,.4,.02,.52l5.5-2.03c-.23-.52-.55-.94-.97-1.26-.42-.32-.94-.48-1.56-.48-.87,0-1.58,.3-2.14,.91Z"/>
  <path class="cls-1" d="M223.84,17.52c-.63-.24-1.14-.6-1.54-1.07l.91-1.23c.38,.37,.78,.65,1.2,.84,.42,.2,.83,.3,1.24,.3,.5,0,.91-.1,1.23-.3,.32-.2,.48-.5,.48-.91,0-.32-.1-.58-.3-.78-.2-.2-.42-.34-.67-.43s-.67-.23-1.27-.41c-1.61-.52-2.42-1.44-2.42-2.76,0-.79,.29-1.47,.88-2.03,.59-.56,1.4-.84,2.45-.84,.67,0,1.26,.08,1.78,.25,.52,.17,1,.43,1.44,.8l-.84,1.3c-.24-.26-.55-.46-.92-.62-.37-.15-.73-.24-1.06-.25-.43,0-.79,.1-1.1,.31-.3,.21-.46,.48-.46,.83,0,.29,.1,.53,.3,.72,.2,.19,.4,.33,.62,.41,.21,.08,.63,.22,1.26,.42,.78,.26,1.38,.59,1.81,1s.65,.97,.65,1.67c0,.91-.32,1.67-.96,2.26s-1.54,.89-2.72,.89c-.7,0-1.37-.12-2-.37Z"/>
</svg>