<?xml version="1.0" encoding="utf-8"?>
<!-- Generator: Adobe Illustrator 26.5.0, SVG Export Plug-In . SVG Version: 6.00 Build 0)  -->
<svg version="1.1" xmlns="http://www.w3.org/2000/svg" xmlns:xlink="http://www.w3.org/1999/xlink" x="0px" y="0px"
	 viewBox="0 0 3710 3710" style="enable-background:new 0 0 3710 3710;" xml:space="preserve">
<style type="text/css">
	.st0{fill:url(#SVGID_1_);}
	.st1{fill:url(#SVGID_00000148659039388790355460000006920361021707450268_);}
	.st2{fill:url(#SVGID_00000005227804205872756730000009709147599844203705_);}
	.st3{fill:url(#SVGID_00000058587757137075326880000012047433996958953096_);}
	.st4{fill:#7D97F4;}
	.st5{fill:#91B3FA;}
	.st6{opacity:0.58;fill:#FFFFFF;}
	.st7{opacity:0.25;fill:#FFFFFF;}
	.st8{fill:#FFFFFF;}
	.st9{fill:url(#SVGID_00000147187406195249650630000011685388144779278470_);}
	.st10{fill:url(#SVGID_00000017502508116550246710000005459955534415597736_);}
	.st11{fill:url(#SVGID_00000103223713952633610290000017934641053548881028_);}
	.st12{fill:url(#SVGID_00000167365201089182045800000005803430732298895760_);}
	.st13{fill:url(#SVGID_00000136391690746043372590000016780909874787938187_);}
	.st14{opacity:0.78;fill:#FFFFFF;}
	.st15{fill:url(#SVGID_00000129918226337507259530000015377641147861952690_);}
	.st16{fill:url(#SVGID_00000126306561481260671180000008748223086258856107_);}
	.st17{fill:url(#SVGID_00000051359540744419178190000014357093512830415261_);}
	.st18{fill:url(#SVGID_00000137822428688572834270000013007363622235154105_);}
	.st19{fill:url(#SVGID_00000039841589590027423570000000448709498114758017_);}
	.st20{fill:url(#SVGID_00000132090170636968204940000017241918229009788860_);}
	.st21{fill:url(#SVGID_00000035513839459179775720000016210300047391917214_);}
	.st22{opacity:0.2;fill:#FFFFFF;}
	.st23{fill:url(#SVGID_00000175293885927157260970000003264186927368234911_);}
	.st24{fill:url(#SVGID_00000119817662811464174890000009693402276066588347_);}
	.st25{fill:url(#SVGID_00000052066615597441174370000012209298916157746315_);}
	.st26{fill:url(#SVGID_00000059307625281912332580000007813771504725253567_);}
	.st27{fill:url(#SVGID_00000067926352869091497460000014030650537175463870_);}
	.st28{fill:url(#SVGID_00000029020380306494646930000004547969916949889181_);}
	.st29{fill:url(#SVGID_00000030466212936280296820000000039650640889808001_);}
	.st30{fill:url(#SVGID_00000021820682951220225020000010439846325242893230_);}
	.st31{opacity:0.63;fill:url(#SVGID_00000110471516105944261560000006181065600485044131_);}
	.st32{opacity:0.63;fill:url(#SVGID_00000066517571017476397310000000788899991417235347_);}
	.st33{opacity:0.63;fill:url(#SVGID_00000129892913849710998290000011994950170256558523_);}
	.st34{opacity:0.63;fill:url(#SVGID_00000112613254366052471250000004132378767819054769_);}
	.st35{opacity:0.63;fill:url(#SVGID_00000026125730300347604220000005275563119703510454_);}
	.st36{opacity:0.63;fill:url(#SVGID_00000157990851265108344280000001011555147985681554_);}
	.st37{fill:url(#SVGID_00000101813913316171915800000001685408971673178046_);}
	.st38{opacity:0.7;}
	.st39{fill:url(#SVGID_00000137105275065481722600000000701554072656239247_);}
	.st40{fill:url(#SVGID_00000183209772065990005270000000907701308789406122_);}
	.st41{fill:url(#SVGID_00000003080194987311102870000006412979826986483107_);}
	.st42{fill:url(#SVGID_00000067931244251479144420000018427539646257720503_);}
	.st43{fill:url(#SVGID_00000013158832928373216590000012717081575901880194_);}
	.st44{fill:url(#SVGID_00000165922313782374941760000016034841896937332352_);}
	.st45{fill:url(#SVGID_00000107587131331312271230000010312645879362900664_);}
	.st46{fill:url(#SVGID_00000078023121192230397900000015979058155238186373_);}
	.st47{fill:url(#SVGID_00000163769412271862666860000014249106465292101268_);}
	.st48{fill:url(#SVGID_00000060028139517024521170000010208167306567823777_);}
	.st49{fill:url(#SVGID_00000038398305483549766490000000539645402943708040_);}
	.st50{fill:url(#SVGID_00000126307364878010968740000015302338815977612945_);}
	.st51{fill:url(#SVGID_00000002382125842258807050000010007132065864882615_);}
	.st52{fill:url(#SVGID_00000104684073331948581040000016137232614431766203_);}
	.st53{fill:url(#SVGID_00000083069204446837700450000002092410991741756045_);}
	.st54{fill:url(#SVGID_00000007397953066301546990000001827273189182355857_);}
	.st55{fill:url(#SVGID_00000157301069760961139270000008285121469462810285_);}
	.st56{fill:url(#SVGID_00000153675987029901196250000002964887323738106251_);}
	.st57{fill:url(#SVGID_00000172405058933117464090000017646878213593629359_);}
	.st58{fill:url(#SVGID_00000121267853396116375600000017148202652368659883_);}
	.st59{fill:url(#SVGID_00000138535183379594366920000017080252832494481316_);}
	.st60{fill:url(#SVGID_00000003799731649840136230000004597175260250419635_);}
	.st61{fill:url(#SVGID_00000157294386998150627620000013142124040625716122_);}
	.st62{fill:url(#SVGID_00000050652472216927088890000001503067263789325186_);}
	.st63{fill:url(#SVGID_00000119818452072932454720000005903410061246238143_);}
	.st64{fill:url(#SVGID_00000150075744677737620500000003479500136677239698_);}
	.st65{fill:url(#SVGID_00000000938234743292656510000008170789266465967786_);}
	.st66{fill:url(#SVGID_00000149375562796999219700000010671249351191343759_);}
</style>
<g id="Background">
</g>
<g id="Illustration">
	<g>
		<linearGradient id="SVGID_1_" gradientUnits="userSpaceOnUse" x1="2736.5422" y1="3186.2195" x2="1264.8329" y2="1358.4486">
			<stop  offset="0" style="stop-color:#DAE3FE"/>
			<stop  offset="1" style="stop-color:#E9EFFD"/>
		</linearGradient>
		<path class="st0" d="M2331.67,2465.41c-33.8,35.59-65.79,58.54-91.06,76.67c-297.06,213.14-648.56,151.01-723.26,135.84
			c-110.31-22.41-323.55-65.71-477.71-247.01c-233.24-274.28-196.92-706.41-16-991.66c33.09-52.18,207.89-341.77,563.18-388.21
			c215.01-28.11,465.65,28.58,647.16,180.65C2614.96,1550.89,2587.84,2195.72,2331.67,2465.41z"/>
		<g>
			
				<linearGradient id="SVGID_00000140696262125056127000000005699350537535152008_" gradientUnits="userSpaceOnUse" x1="1803.8215" y1="2594.2961" x2="1722.0332" y2="173.3221">
				<stop  offset="0" style="stop-color:#09005D"/>
				<stop  offset="1" style="stop-color:#1A0F91"/>
			</linearGradient>
			<path style="fill:url(#SVGID_00000140696262125056127000000005699350537535152008_);" d="M1228.41,1318.84
				c0-57.75,46.82-104.57,104.57-104.57h889.27c49.06,0,89.51,38.45,92.01,87.44l65.64,1289.28c1.95,38.34-28.23,70.68-66.62,71.38
				l-1019.22,18.52c-36.07,0.66-65.66-28.4-65.66-64.48V1318.84z"/>
			
				<linearGradient id="SVGID_00000100350537487225268150000015315930267526916489_" gradientUnits="userSpaceOnUse" x1="1032.5975" y1="2374.0046" x2="1959.5502" y2="2962.8931">
				<stop  offset="0" style="stop-color:#A737D5"/>
				<stop  offset="1" style="stop-color:#EF497A"/>
			</linearGradient>
			<path style="fill:url(#SVGID_00000100350537487225268150000015315930267526916489_);" d="M1443.03,2658.98h-0.03l-114.04-1.47
				c-38.13-0.49-69.16-31.92-69.16-70.06v-172.19c0-1.35,1.09-2.43,2.43-2.43c1.34,0,2.43,1.09,2.43,2.43v172.19
				c0,35.48,28.87,64.73,64.35,65.19l114.04,1.47c1.34,0.02,2.42,1.12,2.4,2.47C1445.44,2657.91,1444.36,2658.98,1443.03,2658.98z"
				/>
			
				<linearGradient id="SVGID_00000147209123844476087100000011732203465799371945_" gradientUnits="userSpaceOnUse" x1="1110.4037" y1="2251.532" x2="2037.3552" y2="2840.4199">
				<stop  offset="0" style="stop-color:#A737D5"/>
				<stop  offset="1" style="stop-color:#EF497A"/>
			</linearGradient>
			<path style="fill:url(#SVGID_00000147209123844476087100000011732203465799371945_);" d="M1262.23,2364.36
				c-1.34,0-2.43-1.09-2.43-2.43v-27.89c0-1.35,1.09-2.43,2.43-2.43c1.34,0,2.43,1.09,2.43,2.43v27.89
				C1264.66,2363.27,1263.57,2364.36,1262.23,2364.36z"/>
			<g>
				<path class="st4" d="M1301.26,1234.11c-0.11-18.48,16.14-32.78,34.45-30.3c121.44,16.47,539.03,67.4,884.3,40.9
					c15.75-1.21,29.41,10.72,30.25,26.49l68.83,1295.03c0.94,17.76-12.62,32.94-30.37,33.99c-145.21,8.59-743.23,41.81-956.54,19.47
					c-12.98-1.36-22.84-12.29-22.91-25.34L1301.26,1234.11z"/>
				<path class="st5" d="M1315.56,1266.57c-0.1-17.78,15.53-31.54,33.15-29.15c116.87,15.85,518.74,64.86,851,39.36
					c15.15-1.16,28.3,10.32,29.11,25.49l66.24,1246.26c0.91,17.09-12.14,31.7-29.22,32.71c-139.74,8.27-715.25,40.24-920.52,18.74
					c-12.49-1.31-21.98-11.83-22.05-24.39L1315.56,1266.57z"/>
				<path class="st6" d="M2176.59,1452.42h-772.88c-5.76,0-10.42-4.67-10.42-10.42v-86c0-5.76,4.67-10.42,10.42-10.42h772.88
					c5.76,0,10.42,4.67,10.42,10.42v86C2187.02,1447.75,2182.35,1452.42,2176.59,1452.42z"/>
				<path class="st6" d="M2194.19,1952.57h-796.8c-3.24,0-5.86-2.62-5.86-5.86v-41.7c0-3.24,2.62-5.86,5.86-5.86h796.8
					c3.24,0,5.86,2.62,5.86,5.86v41.7C2200.05,1949.94,2197.43,1952.57,2194.19,1952.57z"/>
				<path class="st6" d="M2195.77,2034.99h-799.96c-2.36,0-4.28-1.92-4.28-4.28v-44.87c0-2.36,1.92-4.28,4.28-4.28h799.96
					c2.36,0,4.28,1.92,4.28,4.28v44.87C2200.05,2033.08,2198.14,2034.99,2195.77,2034.99z"/>
				<path class="st6" d="M2212.46,2505.64h-815.09c-2.85,0-5.16-2.31-5.16-5.16v-43.1c0-2.85,2.31-5.16,5.16-5.16h815.09
					c2.85,0,5.16,2.31,5.16,5.16v43.1C2217.62,2503.33,2215.31,2505.64,2212.46,2505.64z"/>
				<path class="st7" d="M2179.77,1843.18h-768.86c-10.71,0-19.38-8.68-19.38-19.38v-287.88c0-10.7,8.68-19.38,19.38-19.38h755.82
					c10.36,0,18.89,8.15,19.36,18.51l13.04,287.88C2199.63,1833.95,2190.82,1843.18,2179.77,1843.18z"/>
				<path class="st8" d="M2180.22,1846.23h-768.86c-12.37,0-22.44-10.07-22.44-22.44v-287.88c0-12.37,10.07-22.44,22.44-22.44
					h755.82c12.02,0,21.87,9.41,22.41,21.42l13.04,287.88c0.28,6.18-1.92,12.05-6.19,16.52
					C2192.16,1843.77,2186.41,1846.23,2180.22,1846.23z M1411.36,1519.58c-9,0-16.33,7.33-16.33,16.33v287.88
					c0,9,7.33,16.33,16.33,16.33h768.86c4.5,0,8.69-1.79,11.8-5.05s4.71-7.53,4.51-12.02l-13.04-287.88
					c-0.4-8.74-7.56-15.59-16.31-15.59H1411.36z"/>
				<path class="st7" d="M2192.06,2419.63h-775.27c-13.58,0-24.59-11.01-24.59-24.58v-277.48c0-13.58,11.01-24.59,24.59-24.59
					h764.52c13.21,0,24.05,10.44,24.57,23.63l10.76,277.48C2217.17,2408.03,2206.01,2419.63,2192.06,2419.63z"/>
				<path class="st8" d="M2192.06,2422.68h-775.27c-15.24,0-27.64-12.4-27.64-27.64v-277.48c0-15.24,12.4-27.64,27.64-27.64h764.51
					c14.91,0,27.04,11.67,27.62,26.57l10.76,277.48c0.29,7.58-2.44,14.76-7.7,20.23
					C2206.72,2419.67,2199.65,2422.68,2192.06,2422.68z M1416.79,2096.03c-11.87,0-21.53,9.66-21.53,21.53v277.48
					c0,11.87,9.66,21.53,21.53,21.53h775.27c5.91,0,11.42-2.35,15.52-6.6c4.1-4.26,6.23-9.86,6-15.76l-10.76-277.48
					c-0.45-11.61-9.9-20.7-21.52-20.7H1416.79z"/>
				
					<rect x="1630.66" y="1516.5" transform="matrix(0.9999 -0.0166 0.0166 0.9999 -27.6857 27.3765)" class="st8" width="6.11" height="326.7"/>
				
					<rect x="1928.15" y="1516.47" transform="matrix(0.9996 -0.027 0.027 0.9996 -44.633 52.732)" class="st8" width="6.1" height="326.77"/>
				
					<rect x="1633.68" y="1612.64" transform="matrix(0.9999 -0.0143 0.0143 0.9999 -22.9358 27.5376)" class="st8" width="556.36" height="6.11"/>
				<rect x="1635.07" y="1739.85" class="st8" width="559.71" height="6.11"/>
				
					<rect x="1469.7" y="2253.25" transform="matrix(0.0124 -0.9999 0.9999 0.0124 -643.2894 3861.3062)" class="st8" width="326.67" height="6.11"/>
				<rect x="1637.1" y="2169.3" class="st8" width="571.92" height="6.11"/>
				<rect x="1633.03" y="2244.6" class="st8" width="578.03" height="6.11"/>
				
					<rect x="1921.05" y="2044.82" transform="matrix(0.0125 -0.9999 0.9999 0.0125 -434.9407 4230.0586)" class="st8" width="6.11" height="580.82"/>
			</g>
			
				<linearGradient id="SVGID_00000096056806794031436110000015152485626058038424_" gradientUnits="userSpaceOnUse" x1="1931.9823" y1="905.7421" x2="1522.9478" y2="1443.8174">
				<stop  offset="0" style="stop-color:#09005D"/>
				<stop  offset="1" style="stop-color:#1A0F91"/>
			</linearGradient>
			<path style="fill:url(#SVGID_00000096056806794031436110000015152485626058038424_);" d="M1832.77,1038.48
				c-32.12-22.35-60.05-21.9-79.71-16.1c-17.94,5.29-29.56,22.61-27.85,41.23l8.48,92.55l100.9,8.95
				C1834.58,1165.12,1895.76,1082.31,1832.77,1038.48z M1788.4,1113.15c-13.89,0-25.16-11.26-25.16-25.16s11.26-25.16,25.16-25.16
				c13.9,0,25.16,11.26,25.16,25.16S1802.29,1113.15,1788.4,1113.15z"/>
			<path class="st5" d="M1743.76,1117.23c-1.24,0-2.31-0.95-2.42-2.21l-1.35-14.74c-0.12-1.34,0.86-2.52,2.2-2.65
				c1.37-0.13,2.52,0.86,2.65,2.2l1.35,14.74c0.12,1.34-0.86,2.52-2.2,2.65C1743.91,1117.23,1743.83,1117.23,1743.76,1117.23z
				 M1741.11,1088.34c-1.24,0-2.31-0.95-2.42-2.21l-1.03-11.19c-1.63-17.74,9.54-34.26,26.54-39.28
				c12.04-3.55,24.45-4.06,36.88-1.51c1.32,0.27,2.17,1.56,1.9,2.87c-0.27,1.31-1.55,2.16-2.87,1.9
				c-11.64-2.38-23.25-1.91-34.52,1.41c-14.78,4.36-24.48,18.73-23.07,34.16l1.03,11.19c0.12,1.34-0.86,2.52-2.2,2.65
				C1741.26,1088.34,1741.18,1088.34,1741.11,1088.34z"/>
			
				<linearGradient id="SVGID_00000147931629207751736570000010491565528289900184_" gradientUnits="userSpaceOnUse" x1="1976.8502" y1="939.8488" x2="1567.8153" y2="1477.9246">
				<stop  offset="0" style="stop-color:#09005D"/>
				<stop  offset="1" style="stop-color:#1A0F91"/>
			</linearGradient>
			<path style="fill:url(#SVGID_00000147931629207751736570000010491565528289900184_);" d="M1595.97,1215.97v-46.53
				c0-16.06,13.31-28.93,29.37-28.38l320.81,10.99c14.24,0.49,25.77,11.73,26.62,25.95l2.68,44.71L1595.97,1215.97z"/>
			<path class="st5" d="M1715.59,1158.6h-13.8c-1.34,0-2.43-1.09-2.43-2.43c0-1.35,1.09-2.43,2.43-2.43h13.8
				c1.34,0,2.43,1.09,2.43,2.43C1718.03,1157.51,1716.94,1158.6,1715.59,1158.6z"/>
			<path class="st5" d="M1613.33,1201.36c-1.34,0-2.43-1.09-2.43-2.43v-18.82c0-14.54,11.83-26.38,26.38-26.38H1688
				c1.34,0,2.43,1.09,2.43,2.43c0,1.35-1.09,2.43-2.43,2.43h-50.72c-11.86,0-21.51,9.65-21.51,21.51v18.82
				C1615.77,1200.27,1614.68,1201.36,1613.33,1201.36z"/>
			
				<linearGradient id="SVGID_00000163784320751652652400000002489497901516686004_" gradientUnits="userSpaceOnUse" x1="1925.3048" y1="972.7621" x2="1642.8749" y2="1491.3608">
				<stop  offset="0" style="stop-color:#4F52FF"/>
				<stop  offset="1" style="stop-color:#4042E2"/>
			</linearGradient>
			<path style="fill:url(#SVGID_00000163784320751652652400000002489497901516686004_);" d="M1465.25,1227.72
				c0.77-16.11,14.06-28.78,30.2-28.78l561-0.02c20.17,0,37.42,14.52,40.86,34.39l0.48,2.74c3.77,21.77-12.99,41.68-35.09,41.68
				h-575.56c-13.22,0-23.76-11.06-23.13-24.26L1465.25,1227.72z"/>
		</g>
		<g>
			<g>
				<g>
					
						<linearGradient id="SVGID_00000110435136519391594020000010212377568340978572_" gradientUnits="userSpaceOnUse" x1="2557.218" y1="-424.0651" x2="2496.1616" y2="-188.9987" gradientTransform="matrix(0.9651 -0.2618 0.2618 0.9651 -1163.5303 186.1516)">
						<stop  offset="0" style="stop-color:#E1473D"/>
						<stop  offset="1" style="stop-color:#E9605A"/>
					</linearGradient>
					<circle style="fill:url(#SVGID_00000110435136519391594020000010212377568340978572_);" cx="1220.57" cy="1628.87" r="79.83"/>
					
						<linearGradient id="SVGID_00000127757970442927157360000009019372036680283268_" gradientUnits="userSpaceOnUse" x1="2557.2178" y1="-424.0645" x2="2496.1619" y2="-188.9991" gradientTransform="matrix(0.9651 -0.2618 0.2618 0.9651 -1163.5303 186.1516)">
						<stop  offset="0" style="stop-color:#FF928E"/>
						<stop  offset="1" style="stop-color:#FE7062"/>
					</linearGradient>
					<circle style="fill:url(#SVGID_00000127757970442927157360000009019372036680283268_);" cx="1220.57" cy="1628.87" r="77.18"/>
					<path class="st6" d="M1151.43,1617.08c-0.38,0.1-0.78,0.12-1.19,0.04c-1.4-0.29-2.3-1.65-2.01-3.05
						c5.64-27.48,25.96-49.11,53.01-56.45c4.32-1.17,8.75-1.96,13.16-2.33c1.42-0.12,2.67,0.93,2.79,2.35
						c0.12,1.42-0.92,2.68-2.35,2.79c-4.11,0.35-8.23,1.08-12.25,2.17c-25.16,6.83-44.06,26.94-49.31,52.5
						C1153.08,1616.09,1152.34,1616.83,1151.43,1617.08z"/>
					
						<ellipse transform="matrix(0.4973 -0.8676 0.8676 0.4973 -799.5792 1880.1389)" class="st14" cx="1222.63" cy="1630.05" rx="65.32" ry="65.32"/>
				</g>
				<g>
					
						<linearGradient id="SVGID_00000084522289552330770940000000842712947287764112_" gradientUnits="userSpaceOnUse" x1="2710.9099" y1="-384.1484" x2="2649.8538" y2="-149.0828" gradientTransform="matrix(0.9651 -0.2618 0.2618 0.9651 -1163.5303 186.1516)">
						<stop  offset="0" style="stop-color:#E1473D"/>
						<stop  offset="1" style="stop-color:#E9605A"/>
					</linearGradient>
					
						<circle style="fill:url(#SVGID_00000084522289552330770940000000842712947287764112_);" cx="1376.93" cy="1402.82" r="130.28"/>
					
						<linearGradient id="SVGID_00000102510776988003501540000016490075341985265317_" gradientUnits="userSpaceOnUse" x1="2710.9099" y1="-384.1483" x2="2649.8538" y2="-149.0828" gradientTransform="matrix(0.9651 -0.2618 0.2618 0.9651 -1163.5303 186.1516)">
						<stop  offset="0" style="stop-color:#FF928E"/>
						<stop  offset="1" style="stop-color:#FE7062"/>
					</linearGradient>
					
						<circle style="fill:url(#SVGID_00000102510776988003501540000016490075341985265317_);" cx="1376.93" cy="1402.82" r="125.95"/>
					<path class="st6" d="M1263.63,1381.85c-0.35,0.1-0.73,0.11-1.12,0.03c-1.31-0.27-2.15-1.55-1.88-2.86
						c9.07-44.18,41.73-78.96,85.23-90.76c6.94-1.88,14.06-3.14,21.17-3.74c1.33-0.11,2.5,0.87,2.62,2.21
						c0.11,1.33-0.87,2.52-2.21,2.61c-6.81,0.58-13.65,1.79-20.31,3.59c-41.72,11.32-73.05,44.68-81.76,87.06
						C1265.18,1380.93,1264.49,1381.62,1263.63,1381.85z"/>
					
						<ellipse transform="matrix(0.7071 -0.7071 0.7071 0.7071 -589.0251 1387.4608)" class="st14" cx="1380.3" cy="1404.75" rx="106.6" ry="106.6"/>
				</g>
				<g>
					
						<linearGradient id="SVGID_00000147928818671131995540000000679985076610333600_" gradientUnits="userSpaceOnUse" x1="2865.8933" y1="-343.8918" x2="2804.8372" y2="-108.8261" gradientTransform="matrix(0.9651 -0.2618 0.2618 0.9651 -1163.5303 186.1516)">
						<stop  offset="0" style="stop-color:#E1473D"/>
						<stop  offset="1" style="stop-color:#E9605A"/>
					</linearGradient>
					
						<circle style="fill:url(#SVGID_00000147928818671131995540000000679985076610333600_);" cx="1539.84" cy="1660.13" r="134.06"/>
					
						<linearGradient id="SVGID_00000041991632070542689660000011980827115591938484_" gradientUnits="userSpaceOnUse" x1="2865.8931" y1="-343.8913" x2="2804.8369" y2="-108.8256" gradientTransform="matrix(0.9651 -0.2618 0.2618 0.9651 -1163.5303 186.1516)">
						<stop  offset="0" style="stop-color:#FF928E"/>
						<stop  offset="1" style="stop-color:#FE7062"/>
					</linearGradient>
					<circle style="fill:url(#SVGID_00000041991632070542689660000011980827115591938484_);" cx="1539.84" cy="1660.13" r="129.6"/>
					<path class="st6" d="M1423.23,1638.49c-0.35,0.1-0.73,0.11-1.12,0.03c-1.31-0.27-2.15-1.55-1.88-2.86
						c9.33-45.44,42.91-81.2,87.65-93.33c7.14-1.94,14.46-3.23,21.77-3.85c1.33-0.11,2.5,0.87,2.62,2.21
						c0.11,1.33-0.86,2.51-2.21,2.61c-7.02,0.6-14.05,1.84-20.91,3.7c-42.96,11.65-75.21,46-84.18,89.64
						C1424.78,1637.57,1424.09,1638.26,1423.23,1638.49z"/>
					
						<ellipse transform="matrix(0.0106 -0.9999 0.9999 0.0106 -135.1516 3187.6411)" class="st14" cx="1543.3" cy="1662.12" rx="109.69" ry="109.69"/>
				</g>
				<g>
					
						<linearGradient id="SVGID_00000044147561012606687930000014051757620912618898_" gradientUnits="userSpaceOnUse" x1="2968.3999" y1="-317.2636" x2="2907.3438" y2="-82.1975" gradientTransform="matrix(0.9651 -0.2618 0.2618 0.9651 -1163.5303 186.1516)">
						<stop  offset="0" style="stop-color:#E1473D"/>
						<stop  offset="1" style="stop-color:#E9605A"/>
					</linearGradient>
					
						<circle style="fill:url(#SVGID_00000044147561012606687930000014051757620912618898_);" cx="1642.96" cy="1400.84" r="107.22"/>
					
						<linearGradient id="SVGID_00000068672020442836967890000018132535884084422327_" gradientUnits="userSpaceOnUse" x1="2968.4021" y1="-317.2718" x2="2907.3457" y2="-82.2053" gradientTransform="matrix(0.9651 -0.2618 0.2618 0.9651 -1163.5303 186.1516)">
						<stop  offset="0" style="stop-color:#FF928E"/>
						<stop  offset="1" style="stop-color:#FE7062"/>
					</linearGradient>
					
						<circle style="fill:url(#SVGID_00000068672020442836967890000018132535884084422327_);" cx="1642.96" cy="1400.84" r="103.65"/>
					<path class="st6" d="M1549.89,1384.21c-0.39,0.1-0.8,0.12-1.22,0.04c-1.43-0.29-2.35-1.69-2.05-3.12
						c7.52-36.6,34.57-65.41,70.6-75.18c5.74-1.56,11.64-2.6,17.53-3.1c1.45-0.12,2.73,0.95,2.85,2.41
						c0.12,1.45-0.94,2.75-2.41,2.86c-5.58,0.48-11.16,1.46-16.6,2.94c-34.1,9.25-59.7,36.51-66.81,71.15
						C1551.58,1383.2,1550.82,1383.96,1549.89,1384.21z"/>
					
						<ellipse transform="matrix(0.7071 -0.7071 0.7071 0.7071 -509.6435 1574.4673)" class="st14" cx="1645.73" cy="1402.43" rx="87.73" ry="87.73"/>
				</g>
			</g>
		</g>
		<g>
			<g>
				<g>
					
						<linearGradient id="SVGID_00000083797812917078432960000004402739678326138508_" gradientUnits="userSpaceOnUse" x1="833.6547" y1="2273.0879" x2="1564.8108" y2="2273.0879">
						<stop  offset="0" style="stop-color:#09005D"/>
						<stop  offset="1" style="stop-color:#1A0F91"/>
					</linearGradient>
					<path style="fill:url(#SVGID_00000083797812917078432960000004402739678326138508_);" d="M845.61,1885.64
						c-3.85,137.48-16.33,611.68-10.37,779.72c0.63,17.8,16.75,32.09,36.86,32.67c99.45,2.88,464.04,10.18,626.71,4.14
						c33.88-1.26,60.83-25.56,61.53-55.57c3.38-144.3,10.84-550.15-6.89-736.07c-2.12-22.28-21.87-40.02-47-42.24
						c-108.31-9.59-474.46-33.04-615-24.97C866.1,1844.78,846.24,1863.16,845.61,1885.64z"/>
					<path class="st5" d="M874.18,1946.26v116.51c0,22.34,18.11,40.45,40.45,40.45h556.64c22.34,0,40.45-18.11,40.45-40.45v-116.51
						c0-22.34-18.11-40.45-40.45-40.45H914.63C892.29,1905.8,874.18,1923.92,874.18,1946.26z"/>
					<path class="st22" d="M1483.33,1945.59c-4.92-5.09-11.66-8.01-18.74-8.12l-520.85-8.28c-13.92-0.22-25.67,10.31-26.97,24.17
						l-10.82,115.55c-0.89,9.46,14.68,17.43,34.52,17.67l512.07,6.21c19.81,0.24,36.19-7.32,36.36-16.77l1.93-111.43
						C1490.95,1957.51,1488.25,1950.68,1483.33,1945.59z"/>
				</g>
				
					<linearGradient id="SVGID_00000039125594011346368950000016564034298964818324_" gradientUnits="userSpaceOnUse" x1="768.9514" y1="2398.9778" x2="1259.2222" y2="1926.9786">
					<stop  offset="0" style="stop-color:#4F52FF"/>
					<stop  offset="1" style="stop-color:#4042E2"/>
				</linearGradient>
				<path style="fill:url(#SVGID_00000039125594011346368950000016564034298964818324_);" d="M1013.34,2221.34
					c0,20.55-16.66,37.22-37.22,37.22h-45.31c-20.55,0-37.22-16.66-37.22-37.22l0,0c0-20.55,16.66-37.22,37.22-37.22h45.31
					C996.67,2184.12,1013.34,2200.78,1013.34,2221.34L1013.34,2221.34z"/>
				
					<linearGradient id="SVGID_00000109021219279766848720000013981229533016727950_" gradientUnits="userSpaceOnUse" x1="849.8998" y1="2483.0596" x2="1340.1703" y2="2011.0605">
					<stop  offset="0" style="stop-color:#4F52FF"/>
					<stop  offset="1" style="stop-color:#4042E2"/>
				</linearGradient>
				<path style="fill:url(#SVGID_00000109021219279766848720000013981229533016727950_);" d="M1181.62,2221.34
					c0,20.55-16.66,37.22-37.22,37.22h-45.31c-20.55,0-37.22-16.66-37.22-37.22l0,0c0-20.55,16.66-37.22,37.22-37.22h45.31
					C1164.96,2184.12,1181.62,2200.78,1181.62,2221.34L1181.62,2221.34z"/>
				
					<linearGradient id="SVGID_00000041259877265221582880000002883992876541394594_" gradientUnits="userSpaceOnUse" x1="927.7341" y1="2563.9082" x2="1418.0048" y2="2091.9089">
					<stop  offset="0" style="stop-color:#4F52FF"/>
					<stop  offset="1" style="stop-color:#4042E2"/>
				</linearGradient>
				<path style="fill:url(#SVGID_00000041259877265221582880000002883992876541394594_);" d="M1343.43,2221.34
					c0,20.55-16.66,37.22-37.22,37.22h-45.31c-20.55,0-37.22-16.66-37.22-37.22l0,0c0-20.55,16.66-37.22,37.22-37.22h45.31
					C1326.77,2184.12,1343.43,2200.78,1343.43,2221.34L1343.43,2221.34z"/>
				
					<linearGradient id="SVGID_00000178205539158437888050000001873622225722324866_" gradientUnits="userSpaceOnUse" x1="1668.7527" y1="1633.1245" x2="1513.0599" y2="2051.3586">
					<stop  offset="0" style="stop-color:#FF928E"/>
					<stop  offset="1" style="stop-color:#FE7062"/>
				</linearGradient>
				<path style="fill:url(#SVGID_00000178205539158437888050000001873622225722324866_);" d="M1507.46,2226.8
					c0,20.89-16.93,37.82-37.82,37.82h-43.79c-20.89,0-37.82-16.93-37.82-37.82l0,0c0-20.89,16.93-37.82,37.82-37.82h43.79
					C1490.53,2188.98,1507.46,2205.92,1507.46,2226.8L1507.46,2226.8z"/>
				
					<linearGradient id="SVGID_00000141424230714891873730000007781238783442969527_" gradientUnits="userSpaceOnUse" x1="827.1616" y1="2459.4421" x2="1317.4319" y2="1987.4434">
					<stop  offset="0" style="stop-color:#4F52FF"/>
					<stop  offset="1" style="stop-color:#4042E2"/>
				</linearGradient>
				<path style="fill:url(#SVGID_00000141424230714891873730000007781238783442969527_);" d="M1013.34,2337.84
					c0,20.55-16.66,37.22-37.22,37.22h-45.31c-20.55,0-37.22-16.66-37.22-37.22l0,0c0-20.55,16.66-37.22,37.22-37.22h45.31
					C996.67,2300.63,1013.34,2317.29,1013.34,2337.84L1013.34,2337.84z"/>
				
					<linearGradient id="SVGID_00000053521270629233258440000006760313144637085575_" gradientUnits="userSpaceOnUse" x1="908.11" y1="2543.5237" x2="1398.3801" y2="2071.5251">
					<stop  offset="0" style="stop-color:#4F52FF"/>
					<stop  offset="1" style="stop-color:#4042E2"/>
				</linearGradient>
				<path style="fill:url(#SVGID_00000053521270629233258440000006760313144637085575_);" d="M1181.62,2337.84
					c0,20.55-16.66,37.22-37.22,37.22h-45.31c-20.55,0-37.22-16.66-37.22-37.22l0,0c0-20.55,16.66-37.22,37.22-37.22h45.31
					C1164.96,2300.63,1181.62,2317.29,1181.62,2337.84L1181.62,2337.84z"/>
				
					<linearGradient id="SVGID_00000002371020504708702510000013083930109824438945_" gradientUnits="userSpaceOnUse" x1="985.9451" y1="2624.3716" x2="1476.2155" y2="2152.3728">
					<stop  offset="0" style="stop-color:#4F52FF"/>
					<stop  offset="1" style="stop-color:#4042E2"/>
				</linearGradient>
				<path style="fill:url(#SVGID_00000002371020504708702510000013083930109824438945_);" d="M1343.43,2337.84
					c0,20.55-16.66,37.22-37.22,37.22h-45.31c-20.55,0-37.22-16.66-37.22-37.22l0,0c0-20.55,16.66-37.22,37.22-37.22h45.31
					C1326.77,2300.63,1343.43,2317.29,1343.43,2337.84L1343.43,2337.84z"/>
				
					<linearGradient id="SVGID_00000011745211784572819970000001782710548547678631_" gradientUnits="userSpaceOnUse" x1="1066.8934" y1="2708.4534" x2="1557.1638" y2="2236.4543">
					<stop  offset="0" style="stop-color:#4F52FF"/>
					<stop  offset="1" style="stop-color:#4042E2"/>
				</linearGradient>
				<path style="fill:url(#SVGID_00000011745211784572819970000001782710548547678631_);" d="M1511.72,2337.84
					c0,20.55-16.66,37.22-37.22,37.22h-45.31c-20.55,0-37.22-16.66-37.22-37.22l0,0c0-20.55,16.66-37.22,37.22-37.22h45.31
					C1495.06,2300.63,1511.72,2317.29,1511.72,2337.84L1511.72,2337.84z"/>
				<g>
					
						<linearGradient id="SVGID_00000001642565666908966170000003416150384048878271_" gradientUnits="userSpaceOnUse" x1="878.7149" y1="2512.991" x2="1368.9856" y2="2040.9918">
						<stop  offset="0" style="stop-color:#4F52FF"/>
						<stop  offset="1" style="stop-color:#4042E2"/>
					</linearGradient>
					<path style="opacity:0.63;fill:url(#SVGID_00000001642565666908966170000003416150384048878271_);" d="M1013.34,2441.03
						c0,20.55-16.66,37.22-37.22,37.22h-45.31c-20.55,0-37.22-16.66-37.22-37.22l0,0c0-20.55,16.66-37.22,37.22-37.22h45.31
						C996.67,2403.81,1013.34,2420.47,1013.34,2441.03L1013.34,2441.03z"/>
					
						<linearGradient id="SVGID_00000085250136768932088890000013035221796575479453_" gradientUnits="userSpaceOnUse" x1="959.663" y1="2597.073" x2="1449.9336" y2="2125.074">
						<stop  offset="0" style="stop-color:#4F52FF"/>
						<stop  offset="1" style="stop-color:#4042E2"/>
					</linearGradient>
					<path style="opacity:0.63;fill:url(#SVGID_00000085250136768932088890000013035221796575479453_);" d="M1181.62,2441.03
						c0,20.55-16.66,37.22-37.22,37.22h-45.31c-20.55,0-37.22-16.66-37.22-37.22l0,0c0-20.55,16.66-37.22,37.22-37.22h45.31
						C1164.96,2403.81,1181.62,2420.47,1181.62,2441.03L1181.62,2441.03z"/>
					
						<linearGradient id="SVGID_00000053528022386545542270000015286335338551968903_" gradientUnits="userSpaceOnUse" x1="1037.498" y1="2677.9207" x2="1527.7688" y2="2205.9216">
						<stop  offset="0" style="stop-color:#4F52FF"/>
						<stop  offset="1" style="stop-color:#4042E2"/>
					</linearGradient>
					<path style="opacity:0.63;fill:url(#SVGID_00000053528022386545542270000015286335338551968903_);" d="M1343.43,2441.03
						c0,20.55-16.66,37.22-37.22,37.22h-45.31c-20.55,0-37.22-16.66-37.22-37.22l0,0c0-20.55,16.66-37.22,37.22-37.22h45.31
						C1326.77,2403.81,1343.43,2420.47,1343.43,2441.03L1343.43,2441.03z"/>
				</g>
				<g>
					
						<linearGradient id="SVGID_00000078036057010057892150000015059744917644016825_" gradientUnits="userSpaceOnUse" x1="935.3086" y1="2571.7754" x2="1425.5793" y2="2099.7761">
						<stop  offset="0" style="stop-color:#4F52FF"/>
						<stop  offset="1" style="stop-color:#4042E2"/>
					</linearGradient>
					<path style="opacity:0.63;fill:url(#SVGID_00000078036057010057892150000015059744917644016825_);" d="M1013.34,2554.29
						c0,20.55-16.66,37.22-37.22,37.22h-45.31c-20.55,0-37.22-16.66-37.22-37.22l0,0c0-20.55,16.66-37.22,37.22-37.22h45.31
						C996.67,2517.08,1013.34,2533.74,1013.34,2554.29L1013.34,2554.29z"/>
					
						<linearGradient id="SVGID_00000117656227405226256940000004729590384039247798_" gradientUnits="userSpaceOnUse" x1="1016.2568" y1="2655.8572" x2="1506.5273" y2="2183.8582">
						<stop  offset="0" style="stop-color:#4F52FF"/>
						<stop  offset="1" style="stop-color:#4042E2"/>
					</linearGradient>
					<path style="opacity:0.63;fill:url(#SVGID_00000117656227405226256940000004729590384039247798_);" d="M1181.62,2554.29
						c0,20.55-16.66,37.22-37.22,37.22h-45.31c-20.55,0-37.22-16.66-37.22-37.22l0,0c0-20.55,16.66-37.22,37.22-37.22h45.31
						C1164.96,2517.08,1181.62,2533.74,1181.62,2554.29L1181.62,2554.29z"/>
					
						<linearGradient id="SVGID_00000127035343561564548230000010066533898296386210_" gradientUnits="userSpaceOnUse" x1="1094.0914" y1="2736.7053" x2="1584.3621" y2="2264.7063">
						<stop  offset="0" style="stop-color:#4F52FF"/>
						<stop  offset="1" style="stop-color:#4042E2"/>
					</linearGradient>
					<path style="opacity:0.63;fill:url(#SVGID_00000127035343561564548230000010066533898296386210_);" d="M1343.43,2554.29
						c0,20.55-16.66,37.22-37.22,37.22h-45.31c-20.55,0-37.22-16.66-37.22-37.22l0,0c0-20.55,16.66-37.22,37.22-37.22h45.31
						C1326.77,2517.08,1343.43,2533.74,1343.43,2554.29L1343.43,2554.29z"/>
				</g>
				
					<linearGradient id="SVGID_00000085223025552409343470000009287774433172032688_" gradientUnits="userSpaceOnUse" x1="1395.5344" y1="2580.8923" x2="1556.928" y2="2346.415">
					<stop  offset="0" style="stop-color:#4F52FF"/>
					<stop  offset="1" style="stop-color:#4042E2"/>
				</linearGradient>
				<path style="fill:url(#SVGID_00000085223025552409343470000009287774433172032688_);" d="M1495.54,2551.25
					c0,26.02-21.09,47.11-47.11,47.11h-2.87c-26.02,0-47.11-21.09-47.11-47.11V2461c0-26.02,21.09-47.11,47.11-47.11h2.87
					c26.02,0,47.11,21.09,47.11,47.11V2551.25z"/>
			</g>
			<g class="st38">
				<path class="st8" d="M1430.81,1962.44c0,4.47-3.62,8.09-8.09,8.09h-22.65c-4.47,0-8.09-3.62-8.09-8.09l0,0
					c0-4.47,3.62-8.09,8.09-8.09h22.65C1427.19,1954.35,1430.81,1957.97,1430.81,1962.44L1430.81,1962.44z"/>
				<path class="st8" d="M1430.81,2072.47c0,4.47-3.62,8.09-8.09,8.09h-22.65c-4.47,0-8.09-3.62-8.09-8.09l0,0
					c0-4.47,3.62-8.09,8.09-8.09h22.65C1427.19,2064.38,1430.81,2068,1430.81,2072.47L1430.81,2072.47z"/>
				<path class="st8" d="M1395.21,2007.75c0,4.47-3.62,8.09-8.09,8.09l0,0c-4.47,0-8.09-3.62-8.09-8.09v-22.65
					c0-4.47,3.62-8.09,8.09-8.09l0,0c4.47,0,8.09,3.62,8.09,8.09V2007.75z"/>
				<path class="st8" d="M1395.21,2053.05c0,4.47-3.62,8.09-8.09,8.09l0,0c-4.47,0-8.09-3.62-8.09-8.09v-22.65
					c0-4.47,3.62-8.09,8.09-8.09l0,0c4.47,0,8.09,3.62,8.09,8.09V2053.05z"/>
				<path class="st8" d="M1450.23,2007.75c0,4.47-3.62,8.09-8.09,8.09l0,0c-4.47,0-8.09-3.62-8.09-8.09v-22.65
					c0-4.47,3.62-8.09,8.09-8.09l0,0c4.47,0,8.09,3.62,8.09,8.09V2007.75z"/>
				<path class="st8" d="M1450.23,2053.05c0,4.47-3.62,8.09-8.09,8.09l0,0c-4.47,0-8.09-3.62-8.09-8.09v-22.65
					c0-4.47,3.62-8.09,8.09-8.09l0,0c4.47,0,8.09,3.62,8.09,8.09V2053.05z"/>
			</g>
		</g>
		<g>
			<g>
				<g>
					
						<linearGradient id="SVGID_00000165918556433495057320000013285029997015332274_" gradientUnits="userSpaceOnUse" x1="-2192.114" y1="2702.6653" x2="-2108.6001" y2="2702.6653" gradientTransform="matrix(-1 0 0 1 83.0112 0)">
						<stop  offset="0" style="stop-color:#4F52FF"/>
						<stop  offset="1" style="stop-color:#4042E2"/>
					</linearGradient>
					<path style="fill:url(#SVGID_00000165918556433495057320000013285029997015332274_);" d="M2193.97,2698.63
						c14.31,1.24,39.14,3.25,58.71,4.11c11.77,0.52,18.54-0.63,22.44-2.2c-0.01,0.44-0.02,0.86-0.04,1.24
						c-0.09,2.06-1.77,3.71-3.85,3.82c-36.99,2.06-66.41,0.71-76.88,0.08c-2.17-0.13-3.46-2.49-2.35-4.33
						C2192.57,2700.42,2193.24,2699.52,2193.97,2698.63z"/>
					
						<linearGradient id="SVGID_00000096740612361711010930000011271946519422799798_" gradientUnits="userSpaceOnUse" x1="-2192.1187" y1="2686.2974" x2="-2110.9585" y2="2686.2974" gradientTransform="matrix(-1 0 0 1 83.0112 0)">
						<stop  offset="0" style="stop-color:#09005D"/>
						<stop  offset="1" style="stop-color:#1A0F91"/>
					</linearGradient>
					<path style="fill:url(#SVGID_00000096740612361711010930000011271946519422799798_);" d="M2252.68,2702.73
						c-19.58-0.86-44.41-2.87-58.71-4.11c14.07-17.26,58.71-28.89,58.71-28.89h12.61c8.67,12.5,9.93,24.4,9.83,30.8
						C2271.22,2702.1,2264.45,2703.25,2252.68,2702.73z"/>
					
						<linearGradient id="SVGID_00000012469441687875171950000013519444221117247640_" gradientUnits="userSpaceOnUse" x1="-2184.4036" y1="2663.446" x2="-2160.8794" y2="2663.446" gradientTransform="matrix(-1 0 0 1 83.0112 0)">
						<stop  offset="0" style="stop-color:#FEBBBA"/>
						<stop  offset="1" style="stop-color:#FF928E"/>
					</linearGradient>
					<path style="fill:url(#SVGID_00000012469441687875171950000013519444221117247640_);" d="M2267.41,2649.15l-1.18,23.35
						c-0.13,2.53-2.02,4.65-4.55,5.02c-2.52,0.36-5.89,0.41-9.47-0.78c-2.2-0.73-3.84-2.59-4.24-4.85l-4.08-22.73H2267.41z"/>
				</g>
				<g>
					<g>
						
							<linearGradient id="SVGID_00000099646217288657016010000010697237884600638099_" gradientUnits="userSpaceOnUse" x1="-2358.6057" y1="2700.8643" x2="-2326.6021" y2="2700.8643" gradientTransform="matrix(-1 0 0 1 83.0112 0)">
							<stop  offset="0" style="stop-color:#4F52FF"/>
							<stop  offset="1" style="stop-color:#4042E2"/>
						</linearGradient>
						<path style="fill:url(#SVGID_00000099646217288657016010000010697237884600638099_);" d="M2431.2,2702.56
							c6.2-0.87,9.01-4.09,10.19-7.53c0.01,0.03,0.02,0.06,0.02,0.09c0.91,3.63-1.2,7.4-5.43,9.19c-5.11,2.17-10.7,2.53-15.04,2.36
							c-4.66-0.19-8.93-2.12-11.28-5.2l-0.03-0.05C2414.29,2703.73,2420.85,2704,2431.2,2702.56z"/>
						
							<linearGradient id="SVGID_00000155123260288582305850000011603308611123539850_" gradientUnits="userSpaceOnUse" x1="-2358.373" y1="2676.2222" x2="-2311.3975" y2="2676.2222" gradientTransform="matrix(-1 0 0 1 83.0112 0)">
							<stop  offset="0" style="stop-color:#09005D"/>
							<stop  offset="1" style="stop-color:#1A0F91"/>
						</linearGradient>
						<path style="fill:url(#SVGID_00000155123260288582305850000011603308611123539850_);" d="M2401.94,2649h10.4
							c15.84-0.32,25.79,33.08,29.04,46.02c-1.18,3.45-3.98,6.67-10.19,7.53c-10.35,1.44-16.91,1.17-21.58-1.14
							c-8.56-11.26-12.8-27.75-14.84-37.38C2392.45,2653.09,2401.94,2649,2401.94,2649z"/>
					</g>
					
						<linearGradient id="SVGID_00000016795472221046201210000012815202823165140919_" gradientUnits="userSpaceOnUse" x1="-2333.9558" y1="2643.8354" x2="-2305.8423" y2="2643.8354" gradientTransform="matrix(-1 0 0 1 83.0112 0)">
						<stop  offset="0" style="stop-color:#FEBBBA"/>
						<stop  offset="1" style="stop-color:#FF928E"/>
					</linearGradient>
					<path style="fill:url(#SVGID_00000016795472221046201210000012815202823165140919_);" d="M2411.01,2627.33l5.77,22.97
						c0.71,2.82-0.64,5.73-3.24,7.06c-3.23,1.66-7.78,3.4-11.96,2.9c-1.97-0.24-3.6-1.62-4.25-3.47l-8.48-24.16L2411.01,2627.33z"/>
				</g>
				
					<linearGradient id="SVGID_00000047742791349262875810000009080106023839929751_" gradientUnits="userSpaceOnUse" x1="1929.462" y1="3074.5032" x2="2356.8765" y2="2406.9236">
					<stop  offset="0" style="stop-color:#4F52FF"/>
					<stop  offset="1" style="stop-color:#4042E2"/>
				</linearGradient>
				<path style="fill:url(#SVGID_00000047742791349262875810000009080106023839929751_);" d="M2417.89,2633.97
					c-7.18,6.37-30.55,7.21-30.55,7.21c-84.17-202.02-118.61-230.73-118.61-230.73c12.15,76.25,1.96,245.07,1.96,245.07
					c-13.89,6.13-31.8,0-31.8,0c-1.13-124.84-20.32-233.71-42.98-319.54c56.89-1.28,87.15-20.75,97.02-28.56
					C2340.36,2383.88,2417.89,2633.97,2417.89,2633.97z"/>
				
					<linearGradient id="SVGID_00000100379110215518843660000015173664625326187402_" gradientUnits="userSpaceOnUse" x1="-731.8643" y1="-3226.7239" x2="-792.9205" y2="-2991.6582" gradientTransform="matrix(-1 0 0 1 83.0112 0)">
					<stop  offset="0" style="stop-color:#FF928E"/>
					<stop  offset="1" style="stop-color:#FE7062"/>
				</linearGradient>
				<path style="fill:url(#SVGID_00000100379110215518843660000015173664625326187402_);" d="M2278.49,2075.1
					c10.77,53.71,6.91,149.85,4.37,193.7c-0.71,12.32,7.89,29.41,14.85,41.07c1.09,1.83,0.42,4.17-1.48,5.14
					c-11.64,5.98-51.09,24.53-96.8,26.84c-3.05,0.15-5.77-1.92-6.56-4.87c-33.91-126.61-73.3-207.52-73.3-207.52
					C2163.06,2060.01,2278.49,2075.1,2278.49,2075.1z"/>
				
					<linearGradient id="SVGID_00000103239653886972997540000007536189305484934328_" gradientUnits="userSpaceOnUse" x1="-2239.2161" y1="2539.7214" x2="-2225.7449" y2="2512.7788" gradientTransform="matrix(-1 0 0 1 83.0112 0)">
					<stop  offset="0" style="stop-color:#4F52FF"/>
					<stop  offset="1" style="stop-color:#4042E2"/>
				</linearGradient>
				<path style="fill:url(#SVGID_00000103239653886972997540000007536189305484934328_);" d="M2262.99,2405.67
					c0.48,0,0.96-0.13,1.4-0.39c1.27-0.78,1.67-2.43,0.9-3.7c-0.45-0.74-11.34-18.34-33.37-28.97c-1.34-0.64-2.95-0.09-3.6,1.26
					c-0.65,1.34-0.08,2.95,1.26,3.6c20.54,9.91,31.01,26.75,31.11,26.92C2261.2,2405.21,2262.08,2405.67,2262.99,2405.67z"/>
				<g>
					
						<linearGradient id="SVGID_00000085225453681175000090000008456675317502203777_" gradientUnits="userSpaceOnUse" x1="-2205.1541" y1="2234.0417" x2="-2305.2341" y2="2322.6648" gradientTransform="matrix(-1 0 0 1 83.0112 0)">
						<stop  offset="0" style="stop-color:#FEBBBA"/>
						<stop  offset="1" style="stop-color:#FF928E"/>
					</linearGradient>
					<path style="fill:url(#SVGID_00000085225453681175000090000008456675317502203777_);" d="M2346.03,2229.25
						c-3.46,25.02-13.68,52.31-34.12,81.31l-7.77-6.34c0,0,8.97-36.4,3.87-77.71C2320.62,2224.05,2335.52,2226.59,2346.03,2229.25z"
						/>
					
						<linearGradient id="SVGID_00000008855065451464702450000000439941924248034706_" gradientUnits="userSpaceOnUse" x1="-817.443" y1="-3248.9487" x2="-878.4991" y2="-3013.8828" gradientTransform="matrix(-1 0 0 1 83.0112 0)">
						<stop  offset="0" style="stop-color:#FF928E"/>
						<stop  offset="1" style="stop-color:#FE7062"/>
					</linearGradient>
					<path style="fill:url(#SVGID_00000008855065451464702450000000439941924248034706_);" d="M2266.46,2141.37l12.03-66.27
						c0,0,80.36,61.43,67.54,154.15c-10.52-2.66-25.41-5.2-38.02-2.74C2304.34,2196.76,2293.36,2164.45,2266.46,2141.37z"/>
				</g>
				<g>
					
						<linearGradient id="SVGID_00000152234856786295251520000005430567636496239285_" gradientUnits="userSpaceOnUse" x1="-632.3397" y1="-3200.8701" x2="-693.3958" y2="-2965.8047" gradientTransform="matrix(-1 0 0 1 83.0112 0)">
						<stop  offset="0" style="stop-color:#FF928E"/>
						<stop  offset="1" style="stop-color:#FE7062"/>
					</linearGradient>
					<path style="fill:url(#SVGID_00000152234856786295251520000005430567636496239285_);" d="M2119.58,2129.45l31.02,66.8
						c-5.02,40.33-26.68,57.77-50.04,64.46c-1.46-18.38-6.1-33.23-10.42-43.5C2119.99,2186.39,2119.58,2129.45,2119.58,2129.45z"/>
					
						<linearGradient id="SVGID_00000181086393405702697920000010306844540476195461_" gradientUnits="userSpaceOnUse" x1="-2017.5425" y1="2242.4246" x2="-1938.7253" y2="2242.4246" gradientTransform="matrix(-1 0 0 1 83.0112 0)">
						<stop  offset="0" style="stop-color:#FEBBBA"/>
						<stop  offset="1" style="stop-color:#FF928E"/>
					</linearGradient>
					<path style="fill:url(#SVGID_00000181086393405702697920000010306844540476195461_);" d="M2090.14,2217.21
						c4.31,10.27,8.96,25.12,10.42,43.5c-62.33,24.18-78.82-22.72-78.82-22.72l11.52-2.03
						C2059.27,2238.71,2077.44,2230.32,2090.14,2217.21z"/>
				</g>
				
					<linearGradient id="SVGID_00000145029670981498596500000012496345118461010825_" gradientUnits="userSpaceOnUse" x1="-2094.1545" y1="2031.7966" x2="-2095.0154" y2="2178.9817" gradientTransform="matrix(-1 0 0 1 83.0112 0)">
					<stop  offset="0" style="stop-color:#FEBBBA"/>
					<stop  offset="1" style="stop-color:#FF928E"/>
				</linearGradient>
				<path style="fill:url(#SVGID_00000145029670981498596500000012496345118461010825_);" d="M2148.16,2046.97l14.97,55.05
					c1.68,6.18,8.37,9.51,14.32,7.13c6.42-2.57,14.57-6.07,21.58-9.86c7.49-4.04,9.83-13.67,5.09-20.74l-31.13-46.42
					L2148.16,2046.97z"/>
			</g>
			<g>
				
					<linearGradient id="SVGID_00000160906207657525684970000013929641717072734884_" gradientUnits="userSpaceOnUse" x1="-2386.1003" y1="3180.5593" x2="-2458.5515" y2="3276.4065" gradientTransform="matrix(-0.9897 -0.1428 -0.1428 0.9897 222.066 -1480.9402)">
					<stop  offset="0" style="stop-color:#FEBBBA"/>
					<stop  offset="1" style="stop-color:#FF928E"/>
				</linearGradient>
				<path style="fill:url(#SVGID_00000160906207657525684970000013929641717072734884_);" d="M2115.39,2005.15
					c-0.14,0.95,12.49,62.82,12.49,62.82l35.18-7.96l-3.25-60.42C2159.81,1999.59,2117.68,1989.32,2115.39,2005.15z"/>
				
					<linearGradient id="SVGID_00000026132131630058786640000014167850078459719304_" gradientUnits="userSpaceOnUse" x1="-2441.4326" y1="3203.6799" x2="-2354.8884" y2="3203.6799" gradientTransform="matrix(-0.9897 -0.1428 -0.1428 0.9897 222.066 -1480.9402)">
					<stop  offset="0" style="stop-color:#09005D"/>
					<stop  offset="1" style="stop-color:#1A0F91"/>
				</linearGradient>
				<path style="fill:url(#SVGID_00000026132131630058786640000014167850078459719304_);" d="M2151.89,2013.05l4.2,31.67
					c0.05,0.41,0.05,0.81,0,1.21c-0.35,2.48-2.2,10.93-10.73,8.52c-7.74-2.19-14.84-4.08-19.74-2.58c-2.2,0.67-3.53,2.9-3.07,5.16
					c1.15,5.62,3.97,18.24,8.1,28.83c0.84,2.15,3.19,3.28,5.4,2.63c6.67-1.95,20.63-6.44,31.01-12.69c1.41-0.85,2.24-2.38,2.18-4.02
					c-0.34-8-1.27-32.3-0.49-39.12c0.74-6.4,8.59-10.23,12-11.6c1.12-0.45,1.99-1.33,2.44-2.45c1.58-3.96,3.76-13.11-7.78-16.87
					c-2.42-0.79-3.69-3.39-2.83-5.78c1.71-4.76,2.43-12.02-6.5-16.02c-9.07-4.07-15.85,0.77-19.51,4.7
					c-1.48,1.59-3.85,1.83-5.69,0.67c-1.05-0.66-2.39-0.88-4.02,0.14c-2.19,1.37-5.09,0.43-6.23-1.89
					c-2.17-4.46-6.6-9.24-15.48-7.72c-15.76,2.7-17.55,20.17-13.39,30.4c4.16,10.24,21.08,6.34,29.57,1.18
					c6.46-3.92,14.83,0.19,18.47,2.39C2150.95,2010.53,2151.72,2011.72,2151.89,2013.05z"/>
				
					<linearGradient id="SVGID_00000132089440427225074940000016221563777418951597_" gradientUnits="userSpaceOnUse" x1="-2492.2129" y1="3256.4626" x2="-2434.1011" y2="3196.8416" gradientTransform="matrix(-0.9897 -0.1428 -0.1428 0.9897 222.066 -1480.9402)">
					<stop  offset="0" style="stop-color:#FEBBBA"/>
					<stop  offset="1" style="stop-color:#FF928E"/>
				</linearGradient>
				<path style="fill:url(#SVGID_00000132089440427225074940000016221563777418951597_);" d="M2170.16,2044.23
					c0,0-6.48-18.15,0.18-22.59c6.66-4.44,16.52-2.14,14.35,11.01C2181.99,2049,2170.16,2044.23,2170.16,2044.23z"/>
			</g>
			
				<linearGradient id="SVGID_00000152227133931291395400000009107292765318527906_" gradientUnits="userSpaceOnUse" x1="-1947.0989" y1="2233.168" x2="-1918.8738" y2="2233.168" gradientTransform="matrix(-1 0 0 1 83.0112 0)">
				<stop  offset="0" style="stop-color:#FEBBBA"/>
				<stop  offset="1" style="stop-color:#FF928E"/>
			</linearGradient>
			<path style="fill:url(#SVGID_00000152227133931291395400000009107292765318527906_);" d="M2026.36,2246.58
				c-3.14,2.45-13.89-2.67-20.46-6.2c-3.21-1.72-4.76-5.47-3.66-8.94c1.58-4.99,4.22-11.43,7.47-12.25
				C2015.1,2217.84,2039.28,2236.48,2026.36,2246.58z"/>
			<g>
				<g>
					
						<linearGradient id="SVGID_00000157301278780292071180000016596609413388243123_" gradientUnits="userSpaceOnUse" x1="-1795.1796" y1="2097.8157" x2="-2704.2859" y2="2760.9929" gradientTransform="matrix(-1 0 0 1 83.0112 0)">
						<stop  offset="0" style="stop-color:#E1473D"/>
						<stop  offset="1" style="stop-color:#E9605A"/>
					</linearGradient>
					<path style="fill:url(#SVGID_00000157301278780292071180000016596609413388243123_);" d="M2519.66,2391.1l-626.77-222.91
						l-33.16,92.11l626.55,229.14c13.31,4.87,28.16-0.53,35.29-12.78c7.32-12.58,14.32-32.23,14.75-61.67
						C2536.48,2404.29,2529.75,2394.68,2519.66,2391.1z"/>
					<g>
						
							<linearGradient id="SVGID_00000136372762648247696820000012697676433370682540_" gradientUnits="userSpaceOnUse" x1="1694.0934" y1="2172.1833" x2="1785.5673" y2="2172.1833">
							<stop  offset="0" style="stop-color:#E1473D"/>
							<stop  offset="1" style="stop-color:#E9605A"/>
						</linearGradient>
						<path style="fill:url(#SVGID_00000136372762648247696820000012697676433370682540_);" d="M1698.99,2144.38l86.58,10.63
							c-0.09,11.92-3.99,27.33-17.2,45.02l-72.3-47.7C1692.22,2149.8,1694.43,2143.82,1698.99,2144.38z"/>
						
							<linearGradient id="SVGID_00000139999065650793839650000008162091886467995536_" gradientUnits="userSpaceOnUse" x1="-366.8312" y1="-3131.9155" x2="-427.8873" y2="-2896.8501" gradientTransform="matrix(-1 0 0 1 83.0112 0)">
							<stop  offset="0" style="stop-color:#FEBBBA"/>
							<stop  offset="1" style="stop-color:#FF928E"/>
						</linearGradient>
						<path style="fill:url(#SVGID_00000139999065650793839650000008162091886467995536_);" d="M1892.89,2168.18
							c3.97,57.73-33.16,92.11-33.16,92.11l-91.37-60.27c13.21-17.69,17.11-33.1,17.2-45.02L1892.89,2168.18z"/>
					</g>
				</g>
				
					<linearGradient id="SVGID_00000008840954074917376050000009493911369977087360_" gradientUnits="userSpaceOnUse" x1="-1928.988" y1="2105.9355" x2="-2329.1145" y2="2517.1462" gradientTransform="matrix(-1 0 0 1 83.0112 0)">
					<stop  offset="0" style="stop-color:#FEBBBA"/>
					<stop  offset="1" style="stop-color:#FF928E"/>
				</linearGradient>
				<path style="fill:url(#SVGID_00000008840954074917376050000009493911369977087360_);" d="M2511.89,2419.34
					c0.76,0,1.47-0.47,1.74-1.23c0.34-0.96-0.16-2.01-1.12-2.35l-599.65-211.92c-0.96-0.34-2.01,0.16-2.35,1.12
					c-0.34,0.96,0.16,2.01,1.12,2.35l599.65,211.92C2511.48,2419.31,2511.69,2419.34,2511.89,2419.34z"/>
				
					<linearGradient id="SVGID_00000139260544208712956460000016960721024231865484_" gradientUnits="userSpaceOnUse" x1="-1918.6428" y1="2142.072" x2="-2318.7703" y2="2553.2837" gradientTransform="matrix(-1 0 0 1 83.0112 0)">
					<stop  offset="0" style="stop-color:#FEBBBA"/>
					<stop  offset="1" style="stop-color:#FF928E"/>
				</linearGradient>
				<path style="fill:url(#SVGID_00000139260544208712956460000016960721024231865484_);" d="M2501.54,2455.48
					c0.76,0,1.47-0.47,1.74-1.23c0.34-0.96-0.16-2.01-1.12-2.35l-599.65-211.92c-0.96-0.34-2.01,0.16-2.35,1.12
					c-0.34,0.96,0.16,2.01,1.12,2.35l599.65,211.92C2501.13,2455.45,2501.34,2455.48,2501.54,2455.48z"/>
			</g>
			
				<linearGradient id="SVGID_00000168077271301195243420000009540672704991802034_" gradientUnits="userSpaceOnUse" x1="-2165.6321" y1="2278.6729" x2="-2265.7124" y2="2367.2959" gradientTransform="matrix(-1 0 0 1 83.0112 0)">
				<stop  offset="0" style="stop-color:#FEBBBA"/>
				<stop  offset="1" style="stop-color:#FF928E"/>
			</linearGradient>
			<path style="fill:url(#SVGID_00000168077271301195243420000009540672704991802034_);" d="M2307.34,2303.12l-36.28-2.96
				l-15.71,14.48c0,0,3.72,5.14,15.34,2.18c11.62-2.95,27.54-3.68,27.54-3.68s16.04,7.23,16.24-6.3L2307.34,2303.12z"/>
		</g>
		<g>
			
				<linearGradient id="SVGID_00000133500472318414263640000008765278585549922967_" gradientUnits="userSpaceOnUse" x1="1297.9746" y1="1404.3086" x2="1445.2977" y2="1404.3086">
				<stop  offset="0" style="stop-color:#FF928E"/>
				<stop  offset="1" style="stop-color:#FE7062"/>
			</linearGradient>
			<path style="fill:url(#SVGID_00000133500472318414263640000008765278585549922967_);" d="M1445.3,1441.82
				c-2.92,4.7-7.04,9.7-12.36,15c-5.33,5.3-11.76,9.7-19.31,13.2c-10.78,4.99-21.44,7.57-31.99,7.73
				c-10.55,0.16-20.35-1.84-29.41-6.01c-9.06-4.17-16.96-10.07-23.7-17.71l-12.4,5.74l-6.41-13.83l9.88-4.58
				c-0.73-1.26-1.71-3.21-2.93-5.84c-1.05-2.27-1.8-4.04-2.23-5.29l-10.06,4.66l-6.41-13.83l12.22-5.66
				c-2.04-10.69-1.83-21.05,0.66-31.07c2.48-10.02,7.05-19.01,13.69-26.97c6.64-7.95,15.06-14.29,25.24-19
				c7.3-3.38,14.58-5.59,21.81-6.62c7.24-1.02,14.09-1.15,20.56-0.36l0.57,19.59c-13.05-2.1-24.6-0.82-34.66,3.84
				c-9.7,4.49-17.16,11.48-22.37,20.95c-5.21,9.47-7.36,19.75-6.45,30.81l34.67-16.07l6.41,13.83l-37.73,17.48
				c0.32,1.02,0.93,2.48,1.82,4.39c0.78,1.68,1.95,3.9,3.52,6.66l37.55-17.4l6.41,13.83l-34.13,15.82
				c7.58,7.26,16.4,11.68,26.45,13.28c10.05,1.6,20.29-0.02,30.71-4.84c11.62-5.38,20.21-13.36,25.78-23.95L1445.3,1441.82z"/>
		</g>
		<g>
			
				<linearGradient id="SVGID_00000002342910008557809630000001087514081333003426_" gradientUnits="userSpaceOnUse" x1="1178.2921" y1="1630.7195" x2="1259.0072" y2="1630.7195">
				<stop  offset="0" style="stop-color:#FF928E"/>
				<stop  offset="1" style="stop-color:#FE7062"/>
			</linearGradient>
			<path style="fill:url(#SVGID_00000002342910008557809630000001087514081333003426_);" d="M1259.01,1651.27
				c-1.6,2.57-3.86,5.31-6.77,8.22c-2.92,2.91-6.44,5.32-10.58,7.23c-5.91,2.74-11.75,4.15-17.53,4.23
				c-5.78,0.09-11.15-1.01-16.11-3.29c-4.96-2.28-9.29-5.52-12.99-9.71l-6.79,3.15l-3.51-7.58l5.41-2.51
				c-0.4-0.69-0.93-1.76-1.6-3.2c-0.58-1.25-0.99-2.21-1.22-2.9l-5.51,2.55l-3.51-7.58l6.69-3.1c-1.12-5.86-1-11.53,0.36-17.03
				c1.36-5.49,3.86-10.42,7.5-14.77c3.64-4.36,8.25-7.83,13.83-10.41c4-1.85,7.99-3.06,11.95-3.62c3.96-0.56,7.72-0.63,11.27-0.2
				l0.31,10.74c-7.15-1.15-13.48-0.45-18.99,2.1c-5.31,2.46-9.4,6.29-12.26,11.48c-2.86,5.19-4.03,10.82-3.54,16.88l19-8.8
				l3.51,7.58l-20.67,9.58c0.18,0.56,0.51,1.36,1,2.41c0.43,0.92,1.07,2.14,1.93,3.65l20.57-9.53l3.51,7.58l-18.7,8.67
				c4.15,3.98,8.98,6.4,14.49,7.27c5.51,0.88,11.11-0.01,16.82-2.65c6.36-2.95,11.07-7.32,14.13-13.12L1259.01,1651.27z"/>
		</g>
		<g>
			
				<linearGradient id="SVGID_00000183234801689952887350000018315426346427322497_" gradientUnits="userSpaceOnUse" x1="1458.6113" y1="1658.3333" x2="1605.9344" y2="1658.3333">
				<stop  offset="0" style="stop-color:#FF928E"/>
				<stop  offset="1" style="stop-color:#FE7062"/>
			</linearGradient>
			<path style="fill:url(#SVGID_00000183234801689952887350000018315426346427322497_);" d="M1605.93,1695.84
				c-2.92,4.7-7.04,9.7-12.36,15c-5.33,5.3-11.76,9.7-19.31,13.2c-10.78,4.99-21.44,7.57-31.99,7.73
				c-10.55,0.16-20.35-1.84-29.41-6.01c-9.06-4.17-16.96-10.07-23.7-17.71l-12.4,5.74l-6.41-13.83l9.88-4.58
				c-0.73-1.26-1.71-3.21-2.93-5.84c-1.05-2.27-1.8-4.04-2.23-5.29l-10.06,4.66l-6.41-13.83l12.22-5.66
				c-2.04-10.69-1.83-21.05,0.66-31.07c2.48-10.02,7.05-19.01,13.69-26.97c6.64-7.95,15.06-14.29,25.24-19
				c7.3-3.38,14.58-5.59,21.81-6.62c7.24-1.02,14.09-1.15,20.56-0.36l0.57,19.59c-13.05-2.1-24.6-0.82-34.66,3.84
				c-9.7,4.5-17.16,11.48-22.37,20.95c-5.21,9.47-7.36,19.75-6.45,30.81l34.67-16.07l6.41,13.83l-37.73,17.48
				c0.32,1.02,0.93,2.48,1.82,4.4c0.78,1.68,1.95,3.9,3.52,6.66l37.55-17.4l6.41,13.83l-34.13,15.82
				c7.58,7.26,16.4,11.68,26.45,13.28c10.05,1.6,20.29-0.02,30.71-4.84c11.62-5.38,20.21-13.36,25.78-23.95L1605.93,1695.84z"/>
		</g>
		<g>
			
				<linearGradient id="SVGID_00000115497897187809736200000009901819169426601621_" gradientUnits="userSpaceOnUse" x1="1602.6608" y1="1398.9971" x2="1683.3757" y2="1398.9971">
				<stop  offset="0" style="stop-color:#FF928E"/>
				<stop  offset="1" style="stop-color:#FE7062"/>
			</linearGradient>
			<path style="fill:url(#SVGID_00000115497897187809736200000009901819169426601621_);" d="M1683.38,1419.55
				c-1.6,2.57-3.86,5.31-6.77,8.22c-2.92,2.91-6.44,5.32-10.58,7.23c-5.91,2.74-11.75,4.15-17.53,4.23
				c-5.78,0.09-11.15-1.01-16.11-3.29c-4.96-2.28-9.29-5.52-12.99-9.71l-6.79,3.15l-3.51-7.58l5.41-2.51
				c-0.4-0.69-0.93-1.76-1.6-3.2c-0.58-1.25-0.99-2.21-1.22-2.9l-5.51,2.55l-3.51-7.58l6.69-3.1c-1.12-5.86-1-11.53,0.36-17.03
				c1.36-5.49,3.86-10.42,7.5-14.77c3.64-4.36,8.25-7.83,13.83-10.41c4-1.85,7.99-3.06,11.95-3.62c3.96-0.56,7.72-0.63,11.27-0.2
				l0.31,10.74c-7.15-1.15-13.48-0.45-18.99,2.1c-5.32,2.46-9.4,6.29-12.26,11.48c-2.86,5.19-4.03,10.82-3.54,16.88l19-8.8
				l3.51,7.58l-20.67,9.58c0.18,0.56,0.51,1.36,1,2.41c0.43,0.92,1.07,2.14,1.93,3.65l20.57-9.53l3.51,7.58l-18.7,8.67
				c4.15,3.98,8.98,6.4,14.49,7.27c5.51,0.88,11.11-0.01,16.82-2.65c6.36-2.95,11.07-7.32,14.13-13.12L1683.38,1419.55z"/>
		</g>
	</g>
</g>
</svg>
